<svg width="167" height="47" viewBox="0 0 167 47" fill="none" xmlns="http://www.w3.org/2000/svg">
  <path d="M41.8995 0H27.6098C25.897 0 24.5088 1.40831 24.5088 3.14558V17.6412C24.5088 19.3785 25.897 20.7868 27.6098 20.7868H41.8995C43.612 20.7868 45.0003 19.3785 45.0003 17.6412V3.14558C45.0003 1.40831 43.612 0 41.8995 0Z" fill="#2F4859"/>
  <path d="M17.3905 0H3.10071C1.38821 0 0 1.40831 0 3.14558V17.6412C0 19.3785 1.38821 20.7868 3.10071 20.7868H17.3905C19.1032 20.7868 20.4915 19.3785 20.4915 17.6412V3.14558C20.4915 1.40831 19.1032 0 17.3905 0Z" fill="#2F4859"/>
  <path d="M41.8995 24.8617H27.6098C25.897 24.8617 24.5088 26.27 24.5088 28.0073V42.5029C24.5088 44.2401 25.897 45.6485 27.6098 45.6485H41.8995C43.612 45.6485 45.0003 44.2402 45.0003 42.5029V28.0072C45.0003 26.27 43.612 24.8617 41.8995 24.8617Z" fill="#2F4859"/>
  <path d="M17.3905 24.8617H3.10071C1.38821 24.8617 0 26.27 0 28.0072V42.5029C0 44.2401 1.38821 45.6485 3.10071 45.6485H17.3905C19.1032 45.6485 20.4915 44.2402 20.4915 42.5029V28.0072C20.4915 26.27 19.1032 24.8617 17.3905 24.8617Z" fill="#2F4859"/>
  <path d="M9.01837 16.2713H11.4729V11.6384H16.04V9.14852H11.4729V4.51559H9.01837V9.14852H4.45117V11.6384H9.01837V16.2713Z" fill="#EBF0F3"/>
  <path d="M40.5489 9.14828H28.96V11.638H40.5489V9.14828Z" fill="#EBF0F3"/>
  <path d="M16.0401 36.9848H4.45117V39.4745H16.0401V36.9848Z" fill="#EBF0F3"/>
  <path d="M16.0401 31.0363H4.45117V33.526H16.0401V31.0363Z" fill="#EBF0F3"/>
  <path d="M37.9837 30.2187L34.754 33.4946L31.5244 30.2187L29.7891 31.9791L33.0184 35.255L29.7891 38.5309L31.5244 40.2914L34.754 37.0154L37.9837 40.2914L39.7191 38.5309L36.4894 35.255L39.7191 31.9791L37.9837 30.2187Z" fill="#EBF0F3"/>
  <path d="M70.0997 9.544L69.8117 27.16C69.8117 32.664 69.9877 35.96 70.3397 37.048C70.4357 37.24 70.4837 37.432 70.4837 37.624C70.4837 38.008 70.0197 38.2 69.0917 38.2C68.1637 38.2 67.1237 37.96 65.9717 37.48C64.8517 37.032 64.2917 36.44 64.2917 35.704C64.9317 31.224 65.2517 25.24 65.2517 17.752L65.0597 10.408C64.9957 9.512 64.8037 8.744 64.4837 8.104C64.1957 7.464 63.9077 7.048 63.6197 6.856L63.2357 6.616C63.0117 6.488 62.8997 6.344 62.8997 6.184C62.8997 5.736 63.5877 5.192 64.9637 4.552C66.3717 3.88 67.7317 3.544 69.0437 3.544C69.5557 3.544 69.8437 3.72 69.9077 4.072C70.0357 4.904 70.0997 6.728 70.0997 9.544ZM80.2337 11.32L79.0817 11.272C78.2177 11.272 77.6577 11.48 77.4017 11.896C77.3377 11.992 77.2577 12.04 77.1617 12.04C76.7457 12.04 76.5377 11.336 76.5377 9.928C76.5377 8.488 76.7457 7.576 77.1617 7.192C77.6097 6.808 78.3617 6.616 79.4177 6.616C80.5057 6.616 81.2417 6.808 81.6257 7.192C82.0097 7.544 82.2017 8.152 82.2017 9.016C82.2017 9.88 82.0577 10.488 81.7697 10.84C81.4817 11.16 80.9697 11.32 80.2337 11.32ZM76.3937 35.56L76.9217 24.376C76.9217 21.72 76.6177 19.912 76.0097 18.952C75.8177 18.632 75.5937 18.392 75.3377 18.232C75.1457 18.168 75.0497 18.04 75.0497 17.848C75.0497 17.272 75.8657 16.712 77.4977 16.168C79.1297 15.624 80.3137 15.352 81.0497 15.352C81.8177 15.352 82.2177 15.544 82.2497 15.928C82.2497 16.568 82.1537 18.392 81.9617 21.4C81.8017 24.376 81.7217 27.512 81.7217 30.808C81.7217 34.104 81.9137 36.152 82.2977 36.952C82.3937 37.112 82.4417 37.272 82.4417 37.432C82.4417 37.848 81.8337 38.056 80.6177 38.056C79.4017 38.056 78.1537 37.736 76.8737 37.096C76.5537 36.936 76.3937 36.424 76.3937 35.56ZM101.88 30.424C101.88 31.8 101.608 33 101.064 34.024C100.552 35.048 99.9598 35.8 99.2878 36.28C98.6158 36.76 97.8158 37.144 96.8878 37.432C95.6718 37.816 94.5678 38.008 93.5758 38.008C91.4958 38.008 89.7678 37.608 88.3918 36.808C87.0158 35.976 86.3278 34.664 86.3278 32.872C86.3278 31.816 86.6158 30.952 87.1918 30.28C88.0878 29.288 89.1598 28.792 90.4078 28.792C90.7918 28.792 90.9838 28.968 90.9838 29.32C90.9838 29.352 90.9038 29.608 90.7438 30.088C90.6158 30.536 90.5518 31.112 90.5518 31.816C90.5518 32.52 90.8238 33.144 91.3678 33.688C91.9438 34.232 92.6318 34.504 93.4318 34.504C94.2318 34.504 94.8718 34.376 95.3518 34.12C95.8318 33.832 96.1678 33.48 96.3598 33.064C96.6478 32.488 96.7918 31.944 96.7918 31.432C96.7918 30.504 96.3278 29.704 95.3998 29.032C94.4718 28.36 93.4478 27.832 92.3278 27.448C91.2078 27.064 90.1838 26.424 89.2558 25.528C88.3278 24.632 87.8638 23.512 87.8638 22.168C87.8638 19.864 88.5838 18.136 90.0238 16.984C91.4958 15.832 93.4798 15.256 95.9758 15.256C97.0638 15.256 98.1998 15.416 99.3838 15.736C100.6 16.024 101.208 16.536 101.208 17.272C101.208 17.976 101.08 18.632 100.824 19.24C100.6 19.848 100.312 20.152 99.9598 20.152C99.7678 20.152 99.6398 20.088 99.5758 19.96C99.5118 19.8 99.3998 19.624 99.2398 19.432C99.0798 19.24 98.6958 19 98.0878 18.712C97.4798 18.392 96.9518 18.232 96.5038 18.232C96.0878 18.232 95.7998 18.248 95.6398 18.28C95.5118 18.28 95.2718 18.328 94.9198 18.424C94.5678 18.488 94.2478 18.6 93.9598 18.76C93.2238 19.176 92.8558 19.784 92.8558 20.584C92.8558 21.096 92.9678 21.48 93.1918 21.736C93.4158 21.96 93.5918 22.136 93.7198 22.264C93.8478 22.392 94.0718 22.552 94.3918 22.744C94.7118 22.904 94.9358 23.016 95.0638 23.08C95.1918 23.144 95.4798 23.288 95.9278 23.512C96.3758 23.704 96.6638 23.832 96.7918 23.896C100.184 25.496 101.88 27.672 101.88 30.424ZM120.206 30.424C120.206 31.8 119.934 33 119.39 34.024C118.878 35.048 118.286 35.8 117.614 36.28C116.942 36.76 116.142 37.144 115.214 37.432C113.998 37.816 112.894 38.008 111.902 38.008C109.822 38.008 108.094 37.608 106.718 36.808C105.342 35.976 104.654 34.664 104.654 32.872C104.654 31.816 104.942 30.952 105.518 30.28C106.414 29.288 107.486 28.792 108.734 28.792C109.118 28.792 109.31 28.968 109.31 29.32C109.31 29.352 109.23 29.608 109.07 30.088C108.942 30.536 108.878 31.112 108.878 31.816C108.878 32.52 109.15 33.144 109.694 33.688C110.27 34.232 110.958 34.504 111.758 34.504C112.558 34.504 113.198 34.376 113.678 34.12C114.158 33.832 114.494 33.48 114.686 33.064C114.974 32.488 115.118 31.944 115.118 31.432C115.118 30.504 114.654 29.704 113.726 29.032C112.798 28.36 111.774 27.832 110.654 27.448C109.534 27.064 108.51 26.424 107.582 25.528C106.654 24.632 106.19 23.512 106.19 22.168C106.19 19.864 106.91 18.136 108.35 16.984C109.822 15.832 111.806 15.256 114.302 15.256C115.39 15.256 116.526 15.416 117.71 15.736C118.926 16.024 119.534 16.536 119.534 17.272C119.534 17.976 119.406 18.632 119.15 19.24C118.926 19.848 118.638 20.152 118.286 20.152C118.094 20.152 117.966 20.088 117.902 19.96C117.838 19.8 117.726 19.624 117.566 19.432C117.406 19.24 117.022 19 116.414 18.712C115.806 18.392 115.278 18.232 114.83 18.232C114.414 18.232 114.126 18.248 113.966 18.28C113.838 18.28 113.598 18.328 113.246 18.424C112.894 18.488 112.574 18.6 112.286 18.76C111.55 19.176 111.182 19.784 111.182 20.584C111.182 21.096 111.294 21.48 111.518 21.736C111.742 21.96 111.918 22.136 112.046 22.264C112.174 22.392 112.398 22.552 112.718 22.744C113.038 22.904 113.262 23.016 113.39 23.08C113.518 23.144 113.806 23.288 114.254 23.512C114.702 23.704 114.99 23.832 115.118 23.896C118.51 25.496 120.206 27.672 120.206 30.424ZM140.066 22.6L139.97 28.744C139.97 33 140.434 35.56 141.362 36.424C141.49 36.552 141.554 36.696 141.554 36.856C141.554 37.336 140.514 37.576 138.434 37.576C136.386 37.576 135.298 36.968 135.17 35.752C135.138 35.464 135.122 34.872 135.122 33.976L135.314 26.296C135.314 26.072 135.186 25.96 134.93 25.96C133.394 25.96 131.954 26.392 130.61 27.256C129.266 28.12 128.594 29.224 128.594 30.568C128.594 31.272 128.786 31.864 129.17 32.344C129.554 32.824 130.018 33.064 130.562 33.064C131.138 33.064 131.602 32.952 131.954 32.728C132.338 32.504 132.562 32.376 132.626 32.344C133.17 32.408 133.442 32.984 133.442 34.072C133.442 35.128 132.946 35.992 131.954 36.664C130.962 37.304 129.922 37.624 128.834 37.624C127.746 37.624 126.802 37.432 126.002 37.048C125.234 36.664 124.674 36.232 124.322 35.752C123.97 35.272 123.682 34.728 123.458 34.12C123.234 33.384 123.122 32.744 123.122 32.2C123.122 29.96 123.826 28.168 125.234 26.824C126.642 25.48 128.45 24.52 130.658 23.944C133.57 23.368 135.09 22.84 135.218 22.36C135.314 22.008 135.362 21.416 135.362 20.584C135.362 18.888 134.498 18.04 132.77 18.04C132.034 18.04 131.378 18.28 130.802 18.76C130.226 19.208 129.938 19.784 129.938 20.488L130.226 21.64C130.162 22.184 129.586 22.504 128.498 22.6L127.97 22.648C127.01 22.648 126.242 22.408 125.666 21.928C125.122 21.448 124.85 20.808 124.85 20.008C124.85 19.496 125.01 18.936 125.33 18.328C125.682 17.688 126.114 17.176 126.626 16.792C127.138 16.408 127.922 16.072 128.978 15.784C130.066 15.464 131.106 15.304 132.098 15.304C133.09 15.304 133.858 15.336 134.402 15.4C134.946 15.464 135.682 15.624 136.61 15.88C137.57 16.104 138.354 16.552 138.962 17.224C139.602 17.896 139.938 18.616 139.97 19.384C140.034 20.12 140.066 21.192 140.066 22.6ZM151.132 25L151.372 34.6C151.372 36.616 151.1 38.392 150.556 39.928C150.044 41.496 149.404 42.664 148.636 43.432C147.068 45.064 145.692 45.992 144.508 46.216L143.692 46.408C143.212 46.408 142.972 46.264 142.972 45.976L143.212 45.256C145.548 42.024 146.716 34.088 146.716 21.448C146.716 20.296 146.7 19.432 146.668 18.856C145.996 18.856 145.324 18.904 144.652 19H144.604C144.252 19 144.076 18.824 144.076 18.472L144.22 16.648C144.252 16.36 144.476 16.216 144.892 16.216H146.62V13L146.716 8.44C146.716 8.216 146.748 7.976 146.812 7.72C146.908 7.432 147.26 7.016 147.868 6.472C148.476 5.896 149.372 5.384 150.556 4.936C151.74 4.456 152.748 4.216 153.58 4.216C154.444 4.216 154.876 4.472 154.876 4.984C154.876 5.176 154.732 5.336 154.444 5.464C153.516 5.752 152.748 6.584 152.14 7.96C151.564 9.304 151.276 11.608 151.276 14.872V16.216C152.908 16.152 153.98 16.072 154.492 15.976C154.716 15.976 154.828 16.168 154.828 16.552C154.828 16.936 154.652 17.416 154.3 17.992C153.98 18.536 153.564 18.824 153.052 18.856C152.572 18.856 151.964 18.84 151.228 18.808C151.164 21.24 151.132 23.304 151.132 25ZM162.396 11.32L161.244 11.272C160.38 11.272 159.82 11.48 159.564 11.896C159.5 11.992 159.42 12.04 159.324 12.04C158.908 12.04 158.7 11.336 158.7 9.928C158.7 8.488 158.908 7.576 159.324 7.192C159.772 6.808 160.524 6.616 161.58 6.616C162.668 6.616 163.404 6.808 163.788 7.192C164.172 7.544 164.364 8.152 164.364 9.016C164.364 9.88 164.22 10.488 163.932 10.84C163.644 11.16 163.132 11.32 162.396 11.32ZM158.556 35.56L159.084 24.376C159.084 21.72 158.78 19.912 158.172 18.952C157.98 18.632 157.756 18.392 157.5 18.232C157.308 18.168 157.212 18.04 157.212 17.848C157.212 17.272 158.028 16.712 159.66 16.168C161.292 15.624 162.476 15.352 163.212 15.352C163.98 15.352 164.38 15.544 164.412 15.928C164.412 16.568 164.316 18.392 164.124 21.4C163.964 24.376 163.884 27.512 163.884 30.808C163.884 34.104 164.076 36.152 164.46 36.952C164.556 37.112 164.604 37.272 164.604 37.432C164.604 37.848 163.996 38.056 162.78 38.056C161.564 38.056 160.316 37.736 159.036 37.096C158.716 36.936 158.556 36.424 158.556 35.56Z" fill="#2F4859"/>
  <path d="M41.8995 0H27.6098C25.897 0 24.5088 1.40831 24.5088 3.14558V17.6412C24.5088 19.3785 25.897 20.7868 27.6098 20.7868H41.8995C43.612 20.7868 45.0003 19.3785 45.0003 17.6412V3.14558C45.0003 1.40831 43.612 0 41.8995 0Z" fill="#2F4859"/>
  <path d="M17.3905 0H3.10071C1.38821 0 0 1.40831 0 3.14558V17.6412C0 19.3785 1.38821 20.7868 3.10071 20.7868H17.3905C19.1032 20.7868 20.4915 19.3785 20.4915 17.6412V3.14558C20.4915 1.40831 19.1032 0 17.3905 0Z" fill="#2F4859"/>
  <path d="M41.8995 24.8617H27.6098C25.897 24.8617 24.5088 26.27 24.5088 28.0073V42.5029C24.5088 44.2401 25.897 45.6485 27.6098 45.6485H41.8995C43.612 45.6485 45.0003 44.2402 45.0003 42.5029V28.0072C45.0003 26.27 43.612 24.8617 41.8995 24.8617Z" fill="#2F4859"/>
  <path d="M17.3905 24.8617H3.10071C1.38821 24.8617 0 26.27 0 28.0072V42.5029C0 44.2401 1.38821 45.6485 3.10071 45.6485H17.3905C19.1032 45.6485 20.4915 44.2402 20.4915 42.5029V28.0072C20.4915 26.27 19.1032 24.8617 17.3905 24.8617Z" fill="#2F4859"/>
  <path d="M9.01837 16.2713H11.4729V11.6384H16.04V9.14852H11.4729V4.51559H9.01837V9.14852H4.45117V11.6384H9.01837V16.2713Z" fill="#EBF0F3"/>
  <path d="M40.5489 9.14828H28.96V11.638H40.5489V9.14828Z" fill="#EBF0F3"/>
  <path d="M16.0401 36.9848H4.45117V39.4745H16.0401V36.9848Z" fill="#EBF0F3"/>
  <path d="M16.0401 31.0363H4.45117V33.526H16.0401V31.0363Z" fill="#EBF0F3"/>
  <path d="M37.9837 30.2187L34.754 33.4946L31.5244 30.2187L29.7891 31.9791L33.0184 35.255L29.7891 38.5309L31.5244 40.2914L34.754 37.0154L37.9837 40.2914L39.7191 38.5309L36.4894 35.255L39.7191 31.9791L37.9837 30.2187Z" fill="#EBF0F3"/>
</svg>