<svg width="92" height="92" viewBox="0 0 92 92" fill="none" xmlns="http://www.w3.org/2000/svg">
<path d="M85.6127 57.5906C85.5432 57.0346 85.3926 56.4871 85.1522 55.9841C85.0325 55.7329 84.8977 55.49 84.7446 55.26C84.5907 55.0309 84.4153 54.818 84.2297 54.6173C84.0415 54.4185 83.8415 54.2336 83.6299 54.0644C83.4137 53.9005 83.1871 53.753 82.9532 53.6222C82.2678 53.2391 81.5 53.0371 80.7471 53.0127C80.6517 50.1342 80.5444 47.2556 80.4208 44.3769L80.1969 39.6116C80.1127 38.0231 80.0289 36.4347 79.9272 34.8463C79.8255 36.4347 79.7418 38.0231 79.6575 39.6116L79.4336 44.3769C79.2972 47.5538 79.1781 50.7306 79.0762 53.9075C79.0638 54.2838 79.3211 54.6271 79.7024 54.7098L79.9276 54.7585C81.2679 55.0489 82.2128 56.0043 82.5402 57.0669C82.6188 57.3336 82.6705 57.6028 82.6835 57.8755C82.6899 58.149 82.6709 58.4232 82.6157 58.685C82.5562 58.9467 82.4626 59.1979 82.3444 59.4388C82.2225 59.6789 82.0596 59.8961 81.8824 60.1033C81.5148 60.5071 81.0398 60.8194 80.4954 60.9958C80.2235 61.0851 79.9308 61.1326 79.6302 61.1538C79.3312 61.1653 79.0236 61.1446 78.7147 61.0785C78.0978 60.9459 77.4768 60.6341 76.9404 60.1439C76.4048 59.653 75.9644 58.9815 75.6868 58.1487C75.4065 58.9822 75.4677 59.9737 75.8623 60.8657C76.2497 61.7624 76.9714 62.553 77.8946 63.0563C78.1251 63.1824 78.3679 63.2888 78.6178 63.3813C78.8692 63.4703 79.1296 63.5335 79.3935 63.5848C79.658 63.6308 79.9267 63.6642 80.1976 63.6683C80.4686 63.6703 80.7421 63.6577 81.0147 63.621C82.1059 63.4768 83.1616 62.9677 83.9706 62.1916C84.3802 61.8078 84.7204 61.3511 84.9919 60.8571C85.127 60.6095 85.2444 60.3515 85.3408 60.0857C85.4346 59.8189 85.5047 59.5443 85.5588 59.2674C85.6115 58.99 85.6404 58.7093 85.6539 58.4292C85.6619 58.1485 85.6456 57.8687 85.6127 57.5906Z" fill="#415E72"/>
<path d="M80.8336 30.9485H79.0234V51.265H80.8336V30.9485Z" fill="#CFDCE5"/>
<path d="M33.5312 14.009L30.84 15.3768L29.8102 13.3493L26.4131 6.65958L23.0159 13.3493L21.9861 15.3768L19.2949 14.009L19.6308 13.3493L26.4131 0L33.4909 13.9326H33.4929L33.5312 14.009Z" fill="#FCD577"/>
<path d="M3.16016 18.3173V33.3622H18.917C18.8988 33.4528 18.8907 33.5453 18.8907 33.6398V87.1294C18.8907 87.964 19.5645 88.6378 20.3992 88.6378C21.2319 88.6378 21.9077 87.964 21.9077 87.1294V84.8707C22.0223 84.8103 22.1289 84.7279 22.2175 84.6213L30.9185 74.092V87.1296C30.9185 87.9642 31.5943 88.638 32.4269 88.638C33.2616 88.638 33.9354 87.9642 33.9354 87.1296V33.6396C33.9354 33.5451 33.9254 33.4526 33.9092 33.362H88.8389V18.3173C88.8395 18.3173 3.16016 18.3173 3.16016 18.3173ZM6.17729 30.3451V22.7563L13.766 30.3451H6.17729ZM22.6884 39.8728L29.698 48.3566L21.908 57.7817V38.9295L22.6884 39.8728ZM21.908 81.8396V62.064L30.08 71.9519L21.908 81.8396ZM30.9188 69.8097L22.7468 59.9218L30.9188 50.034V69.8097ZM30.9188 46.6772L25.2951 39.8728L22.7488 36.7894L22.2178 36.1477C22.1292 36.0412 22.0227 35.9567 21.908 35.8963V33.6396C21.908 33.5451 21.898 33.4526 21.8798 33.362H30.9449C30.9287 33.4526 30.9186 33.5451 30.9186 33.6396V46.6772H30.9188ZM39.5233 29.6933C39.3081 29.8583 39.1814 30.0957 39.1453 30.3451H16.6101L7.59934 21.3343H50.3384L40.1388 29.2168L39.5233 29.6933ZM41.9691 30.3451L51.706 22.8187L61.4429 30.3451H41.9691ZM53.0718 21.3343H73.4708L63.2712 29.2168L53.0718 21.3343ZM65.1015 30.3451L75.3011 22.4606L85.5007 30.3451H65.1015ZM85.8223 28.0523L77.1292 21.3345H85.8223V28.0523Z" fill="#FCD577"/>
<path d="M18.8911 33.6397C18.8911 33.5452 18.8992 33.4527 18.9173 33.3621H14.2832V28.018L16.6103 30.3451H18.8469" fill="#EAC36E"/>
<path d="M37.7254 20.389V21.3343H14.2832V18.3174H37.4156C37.6167 18.9731 37.7254 19.669 37.7254 20.389Z" fill="#EAC36E"/>
<path d="M40.139 23.4724V33.3622H33.9099C33.9261 33.4528 33.9362 33.5453 33.9362 33.6399V39.873H30.9192V33.6399C30.9192 33.5453 30.9293 33.4528 30.9455 33.3622H21.8804C21.8986 33.4528 21.9086 33.5453 21.9086 33.6399V35.8965C22.0233 35.9569 22.1298 36.0414 22.2184 36.1479L25.2957 39.8729H22.689L21.9086 38.9295V39.8729H18.8917V33.6397C18.8917 33.5452 18.8997 33.4526 18.9179 33.3621H16.6968V16.4326H33.0972C34.9496 16.4326 36.6351 17.1487 37.8922 18.3172C38.7691 19.1317 39.4369 20.1676 39.8089 21.3341C40.0224 22.0081 40.139 22.7262 40.139 23.4724Z" fill="#EAC36E"/>
<path d="M21.9866 15.3768L19.2954 14.009L19.6312 13.3494H23.0164L21.9866 15.3768Z" fill="#FCD577"/>
<path d="M30.8408 15.3768L29.811 13.3494H30.684C31.6816 13.3494 32.6309 13.5565 33.4918 13.9326H33.4937L33.532 14.009L30.8408 15.3768Z" fill="#FCD577"/>
<path d="M29.7083 92H8.67822V83.9805H44.1487V92H34.5354" fill="#415E72"/>
<path d="M40.139 20.3884V36.7889H16.6968V13.3486H33.0972C36.9873 13.3486 40.139 16.5007 40.139 20.3884Z" fill="#FF6F52"/>
<path d="M40.1391 20.389V29.9006H26.2588V13.3494H33.0973C36.9874 13.3494 40.1391 16.5011 40.1391 20.389Z" fill="#87DAF4"/>
<path d="M37.7254 21.461V29.9006H26.2588V14.4214H30.6838C34.5735 14.4214 37.7254 17.5731 37.7254 21.461Z" fill="#4EBFED"/>
</svg>
