<svg width="92" height="92" viewBox="0 0 92 92" fill="none" xmlns="http://www.w3.org/2000/svg">
<path d="M75.5435 2.65021H16.4531V20.2614H75.5435V2.65021Z" fill="#E6E6E6"/>
<path d="M75.545 21.5714C74.8214 21.5714 74.2347 20.9845 74.2347 20.2611V3.96071H17.7651V20.2611C17.7651 20.9847 17.1782 21.5714 16.4548 21.5714C15.7312 21.5714 15.1445 20.9845 15.1445 20.2611V1.33997H76.8556V20.2611C76.8553 20.9845 76.2686 21.5714 75.545 21.5714Z" fill="#4D4D4D"/>
<path d="M30.2643 6.20447C29.5423 6.20447 28.9571 6.78971 28.9571 7.5117V10.4268H26.8215V7.5117C26.8215 6.78971 26.2362 6.20447 25.5143 6.20447C24.7923 6.20447 24.207 6.78971 24.207 7.5117V15.9565C24.207 16.6785 24.7923 17.2637 25.5143 17.2637C26.2362 17.2637 26.8215 16.6785 26.8215 15.9565V13.0416H28.9571V15.9565C28.9571 16.6785 29.5423 17.2637 30.2643 17.2637C30.9863 17.2637 31.5715 16.6785 31.5715 15.9565V7.5117C31.5719 6.78971 30.9863 6.20447 30.2643 6.20447Z" fill="#247396"/>
<path d="M37.7577 6.20447C35.7271 6.20447 34.0752 7.85634 34.0752 9.88699V13.5814C34.0752 15.612 35.7271 17.2639 37.7577 17.2639C39.7884 17.2639 41.4402 15.612 41.4402 13.5814V9.88699C41.4402 7.85634 39.7882 6.20447 37.7577 6.20447ZM38.8256 13.5814C38.8256 14.1702 38.3467 14.6491 37.7577 14.6491C37.1689 14.6491 36.69 14.1702 36.69 13.5814V9.88699C36.69 9.29815 37.1689 8.81911 37.7577 8.81911C38.3466 8.81911 38.8256 9.29797 38.8256 9.88699V13.5814Z" fill="#247396"/>
<path d="M48.8779 6.20447H44.1275C43.4056 6.20447 42.8203 6.78971 42.8203 7.5117C42.8203 8.23368 43.4056 8.81893 44.1275 8.81893H45.1952V15.9563C45.1952 16.6783 45.7805 17.2635 46.5025 17.2635C47.2245 17.2635 47.8097 16.6783 47.8097 15.9563V8.81911H48.8776C49.5996 8.81911 50.1848 8.23386 50.1848 7.51188C50.1848 6.78989 49.6001 6.20447 48.8779 6.20447Z" fill="#247396"/>
<path d="M58.4492 8.81911C59.1712 8.81911 59.7565 8.23387 59.7565 7.51188C59.7565 6.78989 59.1712 6.20465 58.4492 6.20465H53.6988C52.9768 6.20465 52.3916 6.78989 52.3916 7.51188V15.9567C52.3916 16.6787 52.9768 17.2639 53.6988 17.2639H58.4492C59.1712 17.2639 59.7565 16.6787 59.7565 15.9567C59.7565 15.2347 59.1712 14.6494 58.4492 14.6494H55.0062V13.0777H56.9377C57.6597 13.0777 58.2449 12.4925 58.2449 11.7705C58.2449 11.0485 57.6597 10.4633 56.9377 10.4633H55.0062V8.81947H58.4492V8.81911Z" fill="#247396"/>
<path d="M68.2293 14.6493H64.7863V7.5117C64.7863 6.78971 64.2011 6.20447 63.4791 6.20447C62.7571 6.20447 62.1719 6.78971 62.1719 7.5117V15.9565C62.1719 16.6785 62.7571 17.2637 63.4791 17.2637H68.2295C68.9515 17.2637 69.5367 16.6785 69.5367 15.9565C69.5369 15.2345 68.9513 14.6493 68.2293 14.6493Z" fill="#247396"/>
<path d="M89.1967 23.8342H2.80273V90.6601H89.1967V23.8342Z" fill="#FFCA6C"/>
<path d="M89.1967 22.5239H2.80273V26.447H89.1967V22.5239Z" fill="#EAB45E"/>
<path d="M26.4713 74.2794C23.6184 74.2794 21.3057 76.5921 21.3057 79.445V90.6581H31.6366V79.445C31.637 76.5921 29.3242 74.2794 26.4713 74.2794Z" fill="#E6E6E6"/>
<path d="M65.528 74.2794C62.6751 74.2794 60.3623 76.5921 60.3623 79.445V90.6581H70.6933V79.445C70.6936 76.5921 68.3809 74.2794 65.528 74.2794Z" fill="#E6E6E6"/>
<path d="M45.9996 74.2794C43.1467 74.2794 40.834 76.5921 40.834 79.445V90.6581H51.1649V79.445C51.1649 76.5921 48.8524 74.2794 45.9996 74.2794Z" fill="#E6E6E6"/>
<path d="M32.8387 90.6579H30.4364V79.445C30.4364 77.2591 28.6579 75.4806 26.472 75.4806C24.2861 75.4806 22.5077 77.2591 22.5077 79.445V90.6579H20.1055V79.445C20.1055 75.9343 22.9616 73.0781 26.472 73.0781C29.9824 73.0781 32.8389 75.9343 32.8389 79.445V90.6579H32.8387Z" fill="#EAB45E"/>
<path d="M71.8953 90.6579H69.4931V79.445C69.4931 77.2591 67.7147 75.4806 65.5288 75.4806C63.3429 75.4806 61.5644 77.2591 61.5644 79.445V90.6579H59.1621V79.445C59.1621 75.9343 62.0183 73.0781 65.529 73.0781C69.0397 73.0781 71.8955 75.9343 71.8955 79.445V90.6579H71.8953Z" fill="#EAB45E"/>
<path d="M52.367 90.6579H49.9648V79.445C49.9648 77.2591 48.1864 75.4806 46.0005 75.4806C43.8146 75.4806 42.036 77.2591 42.036 79.445V90.6579H39.6338V79.445C39.6338 75.9343 42.4899 73.0781 46.0003 73.0781C49.5107 73.0781 52.3672 75.9343 52.3672 79.445V90.6579H52.367Z" fill="#EAB45E"/>
<path d="M13.7343 60.6306C12.1061 60.6306 10.7861 61.9506 10.7861 63.5788V69.8028H16.6826V63.5788C16.6824 61.9506 15.3624 60.6306 13.7343 60.6306Z" fill="#E6E6E6"/>
<path d="M39.5468 60.6306C37.9186 60.6306 36.5986 61.9506 36.5986 63.5788V69.8028H42.4951V63.5788C42.4947 61.9506 41.1751 60.6306 39.5468 60.6306Z" fill="#E6E6E6"/>
<path d="M26.6405 60.6306C25.0124 60.6306 23.6924 61.9506 23.6924 63.5788V69.8028H29.5888V63.5788C29.5887 61.9506 28.2687 60.6306 26.6405 60.6306Z" fill="#E6E6E6"/>
<path d="M52.454 60.6306C50.8258 60.6306 49.5059 61.9506 49.5059 63.5788V69.8028H55.4023V63.5788C55.4021 61.9506 54.0823 60.6306 52.454 60.6306Z" fill="#E6E6E6"/>
<path d="M78.2665 60.6306C76.6383 60.6306 75.3184 61.9506 75.3184 63.5788V69.8028H81.2148V63.5788C81.2146 61.9506 79.8948 60.6306 78.2665 60.6306Z" fill="#E6E6E6"/>
<path d="M65.3602 60.6306C63.7321 60.6306 62.4121 61.9506 62.4121 63.5788V69.8028H68.3086V63.5788C68.3082 61.9506 66.9886 60.6306 65.3602 60.6306Z" fill="#E6E6E6"/>
<path d="M13.7343 44.7435C12.1061 44.7435 10.7861 46.0635 10.7861 47.6917V53.9157H16.6826V47.6917C16.6824 46.0632 15.3624 44.7435 13.7343 44.7435Z" fill="#E6E6E6"/>
<path d="M39.5468 44.7435C37.9186 44.7435 36.5986 46.0635 36.5986 47.6917V53.9157H42.4951V47.6917C42.4947 46.0632 41.1751 44.7435 39.5468 44.7435Z" fill="#E6E6E6"/>
<path d="M26.6405 44.7435C25.0124 44.7435 23.6924 46.0635 23.6924 47.6917V53.9157H29.5888V47.6917C29.5887 46.0632 28.2687 44.7435 26.6405 44.7435Z" fill="#E6E6E6"/>
<path d="M52.454 44.7435C50.8258 44.7435 49.5059 46.0635 49.5059 47.6917V53.9157H55.4023V47.6917C55.4021 46.0632 54.0823 44.7435 52.454 44.7435Z" fill="#E6E6E6"/>
<path d="M78.2665 44.7435C76.6383 44.7435 75.3184 46.0635 75.3184 47.6917V53.9157H81.2148V47.6917C81.2146 46.0632 79.8948 44.7435 78.2665 44.7435Z" fill="#E6E6E6"/>
<path d="M65.3602 44.7435C63.7321 44.7435 62.4121 46.0635 62.4121 47.6917V53.9157H68.3086V47.6917C68.3082 46.0632 66.9886 44.7435 65.3602 44.7435Z" fill="#E6E6E6"/>
<path d="M13.7343 28.8561C12.1061 28.8561 10.7861 30.1761 10.7861 31.8042V38.0282H16.6826V31.8042C16.6824 30.1761 15.3624 28.8561 13.7343 28.8561Z" fill="#E6E6E6"/>
<path d="M39.5468 28.8561C37.9186 28.8561 36.5986 30.1761 36.5986 31.8042V38.0282H42.4951V31.8042C42.4947 30.1761 41.1751 28.8561 39.5468 28.8561Z" fill="#E6E6E6"/>
<path d="M26.6405 28.8561C25.0124 28.8561 23.6924 30.1761 23.6924 31.8042V38.0282H29.5888V31.8042C29.5887 30.1761 28.2687 28.8561 26.6405 28.8561Z" fill="#E6E6E6"/>
<path d="M52.454 28.8561C50.8258 28.8561 49.5059 30.1761 49.5059 31.8042V38.0282H55.4023V31.8042C55.4021 30.1761 54.0823 28.8561 52.454 28.8561Z" fill="#E6E6E6"/>
<path d="M78.2665 28.8561C76.6383 28.8561 75.3184 30.1761 75.3184 31.8042V38.0282H81.2148V31.8042C81.2146 30.1761 79.8948 28.8561 78.2665 28.8561Z" fill="#E6E6E6"/>
<path d="M65.3602 28.8561C63.7321 28.8561 62.4121 30.1761 62.4121 31.8042V38.0282H68.3086V31.8042C68.3082 30.1761 66.9886 28.8561 65.3602 28.8561Z" fill="#E6E6E6"/>
<path d="M17.6654 70.7855H9.80371V63.5787C9.80371 61.4112 11.5672 59.6477 13.7347 59.6477C15.9023 59.6477 17.6656 61.4112 17.6656 63.5787V70.7855H17.6654ZM11.7693 68.8199H15.7002V63.5787C15.7002 62.495 14.8184 61.6131 13.7349 61.6131C12.6512 61.6131 11.7693 62.4949 11.7693 63.5787V68.8199Z" fill="#EAB45E"/>
<path d="M43.4781 70.7855H35.6162V63.5787C35.6162 61.4112 37.3795 59.6477 39.5471 59.6477C41.7146 59.6477 43.4781 61.4112 43.4781 63.5787V70.7855ZM37.5818 68.8199H41.5127V63.5787C41.5127 62.495 40.6309 61.6131 39.5471 61.6131C38.4634 61.6131 37.5818 62.4949 37.5818 63.5787V68.8199Z" fill="#EAB45E"/>
<path d="M30.5718 70.7855H22.71V63.5787C22.71 61.4112 24.4732 59.6477 26.6408 59.6477C28.8084 59.6477 30.5718 61.4112 30.5718 63.5787V70.7855ZM24.6757 68.8199H28.6066V63.5787C28.6066 62.495 27.7249 61.6131 26.641 61.6131C25.5573 61.6131 24.6757 62.4949 24.6757 63.5787V68.8199Z" fill="#EAB45E"/>
<path d="M56.3851 70.7855H48.5234V63.5787C48.5234 61.4112 50.2869 59.6477 52.4545 59.6477C54.622 59.6477 56.3853 61.4112 56.3853 63.5787V70.7855H56.3851ZM50.489 68.8199H54.4199V63.5787C54.4199 62.495 53.5382 61.6131 52.4547 61.6131C51.371 61.6131 50.489 62.4949 50.489 63.5787V68.8199Z" fill="#EAB45E"/>
<path d="M82.1968 70.7855H74.335V63.5787C74.335 61.4112 76.0982 59.6477 78.2658 59.6477C80.4334 59.6477 82.1968 61.4112 82.1968 63.5787V70.7855ZM76.3007 68.8199H80.2316V63.5787C80.2316 62.495 79.3499 61.6131 78.266 61.6131C77.1823 61.6131 76.3007 62.4949 76.3007 63.5787V68.8199Z" fill="#EAB45E"/>
<path d="M69.2906 70.7855H61.4287V63.5787C61.4287 61.4112 63.1922 59.6477 65.3597 59.6477C67.5273 59.6477 69.2906 61.4112 69.2906 63.5787V70.7855ZM63.3943 68.8199H67.3252V63.5787C67.3252 62.495 66.4434 61.6131 65.3599 61.6131C64.2764 61.6131 63.3943 62.4949 63.3943 63.5787V68.8199Z" fill="#EAB45E"/>
<path d="M17.6654 54.898H9.80371V47.6913C9.80371 45.5237 11.5672 43.7604 13.7347 43.7604C15.9023 43.7604 17.6656 45.5237 17.6656 47.6913V54.898H17.6654ZM11.7693 52.9324H15.7002V47.6913C15.7002 46.6076 14.8184 45.726 13.7349 45.726C12.6512 45.726 11.7693 46.6078 11.7693 47.6913V52.9324Z" fill="#EAB45E"/>
<path d="M43.4781 54.898H35.6162V47.6913C35.6162 45.5237 37.3795 43.7604 39.5471 43.7604C41.7146 43.7604 43.4781 45.5237 43.4781 47.6913V54.898ZM37.5818 52.9324H41.5127V47.6913C41.5127 46.6076 40.6309 45.726 39.5471 45.726C38.4634 45.726 37.5818 46.6078 37.5818 47.6913V52.9324Z" fill="#EAB45E"/>
<path d="M30.5718 54.898H22.71V47.6913C22.71 45.5237 24.4732 43.7604 26.6408 43.7604C28.8084 43.7604 30.5718 45.5237 30.5718 47.6913V54.898ZM24.6757 52.9324H28.6066V47.6913C28.6066 46.6076 27.7249 45.726 26.641 45.726C25.5573 45.726 24.6757 46.6078 24.6757 47.6913V52.9324Z" fill="#EAB45E"/>
<path d="M56.3851 54.898H48.5234V47.6913C48.5234 45.5237 50.2869 43.7604 52.4545 43.7604C54.622 43.7604 56.3853 45.5237 56.3853 47.6913V54.898H56.3851ZM50.489 52.9324H54.4199V47.6913C54.4199 46.6076 53.5382 45.726 52.4547 45.726C51.371 45.726 50.489 46.6078 50.489 47.6913V52.9324Z" fill="#EAB45E"/>
<path d="M82.1968 54.898H74.335V47.6913C74.335 45.5237 76.0982 43.7604 78.2658 43.7604C80.4334 43.7604 82.1968 45.5237 82.1968 47.6913V54.898ZM76.3007 52.9324H80.2316V47.6913C80.2316 46.6076 79.3499 45.726 78.266 45.726C77.1823 45.726 76.3007 46.6078 76.3007 47.6913V52.9324Z" fill="#EAB45E"/>
<path d="M69.2906 54.898H61.4287V47.6913C61.4287 45.5237 63.1922 43.7604 65.3597 43.7604C67.5273 43.7604 69.2906 45.5237 69.2906 47.6913V54.898ZM63.3943 52.9324H67.3252V47.6913C67.3252 46.6076 66.4434 45.726 65.3599 45.726C64.2764 45.726 63.3943 46.6078 63.3943 47.6913V52.9324Z" fill="#EAB45E"/>
<path d="M17.6654 39.0109H9.80371V31.8042C9.80371 29.6366 11.5672 27.8732 13.7347 27.8732C15.9023 27.8732 17.6656 29.6366 17.6656 31.8042V39.0109H17.6654ZM11.7693 37.0453H15.7002V31.8042C15.7002 30.7205 14.8184 29.8386 13.7349 29.8386C12.6512 29.8386 11.7693 30.7203 11.7693 31.8042V37.0453Z" fill="#EAB45E"/>
<path d="M43.4781 39.0109H35.6162V31.8042C35.6162 29.6366 37.3795 27.8732 39.5471 27.8732C41.7146 27.8732 43.4781 29.6366 43.4781 31.8042V39.0109ZM37.5818 37.0453H41.5127V31.8042C41.5127 30.7205 40.6309 29.8386 39.5471 29.8386C38.4634 29.8386 37.5818 30.7203 37.5818 31.8042V37.0453Z" fill="#EAB45E"/>
<path d="M30.5718 39.0109H22.71V31.8042C22.71 29.6366 24.4732 27.8732 26.6408 27.8732C28.8084 27.8732 30.5718 29.6366 30.5718 31.8042V39.0109ZM24.6757 37.0453H28.6066V31.8042C28.6066 30.7205 27.7249 29.8386 26.641 29.8386C25.5573 29.8386 24.6757 30.7203 24.6757 31.8042V37.0453Z" fill="#EAB45E"/>
<path d="M56.3851 39.0109H48.5234V31.8042C48.5234 29.6366 50.2869 27.8732 52.4545 27.8732C54.622 27.8732 56.3853 29.6366 56.3853 31.8042V39.0109H56.3851ZM50.489 37.0453H54.4199V31.8042C54.4199 30.7205 53.5382 29.8386 52.4547 29.8386C51.371 29.8386 50.489 30.7203 50.489 31.8042V37.0453Z" fill="#EAB45E"/>
<path d="M82.1968 39.0109H74.335V31.8042C74.335 29.6366 76.0982 27.8732 78.2658 27.8732C80.4334 27.8732 82.1968 29.6366 82.1968 31.8042V39.0109ZM76.3007 37.0453H80.2316V31.8042C80.2316 30.7205 79.3499 29.8386 78.266 29.8386C77.1823 29.8386 76.3007 30.7203 76.3007 31.8042V37.0453Z" fill="#EAB45E"/>
<path d="M69.2906 39.0109H61.4287V31.8042C61.4287 29.6366 63.1922 27.8732 65.3597 27.8732C67.5273 27.8732 69.2906 29.6366 69.2906 31.8042V39.0109ZM63.3943 37.0453H67.3252V31.8042C67.3252 30.7205 66.4434 29.8386 65.3599 29.8386C64.2764 29.8386 63.3943 30.7203 63.3943 31.8042V37.0453Z" fill="#EAB45E"/>
<path d="M92 19.1693H0V23.8334H92V19.1693Z" fill="#4D4D4D"/>
</svg>
