<svg width="92" height="92" viewBox="0 0 92 92" fill="none" xmlns="http://www.w3.org/2000/svg">
<g clip-path="url(#clip0)">
<path d="M25.7057 22.8209H69.5347C70.7118 22.8209 72.3064 20.7834 72.3064 19.6341C71.7393 18.6947 70.7118 18.0645 69.5347 18.0645C71.3235 18.0645 72.7736 14.8257 72.7736 14.8257C72.7736 13.0369 71.3235 11.5868 69.5347 11.5868H25.7057C22.7055 11.5868 20.1826 13.627 19.4463 16.3952C19.4461 19.095 22.7055 22.8209 25.7057 22.8209Z" fill="#CF8151"/>
<path d="M28.2998 18.0647H69.5343C71.3229 18.0645 72.773 16.6147 72.773 14.8259C72.773 14.7921 72.7691 14.7596 72.768 14.7261H31.6386C29.7946 14.726 28.2998 16.2208 28.2998 18.0647Z" fill="#BD6E45"/>
<path d="M69.5343 21.2036H25.7053C22.705 21.2036 20.1822 19.1635 19.4459 16.3952C19.3041 16.928 19.2275 17.4872 19.2275 18.0645C19.2275 21.6421 22.1277 24.5422 25.7053 24.5422L46.1095 26.1594L69.5343 24.5422C71.3231 24.5422 72.7732 23.0922 72.7732 21.3034C72.7732 20.6919 72.6005 20.1219 72.306 19.6341C71.7389 20.5735 70.7114 21.2036 69.5343 21.2036Z" fill="#BD6E45"/>
<path d="M11.5787 31.0202C10.4016 31.0202 9.37412 31.6504 8.80703 32.5898C8.80703 33.743 10.4016 35.7765 11.5787 35.7765H77.1817C80.182 35.7765 83.4411 31.8464 83.4411 29.3509C82.7046 26.5827 80.1818 24.5425 77.1817 24.5425H11.5787C9.78992 24.5425 8.33984 25.9926 8.33984 27.7813C8.33984 29.5701 9.78992 31.0202 11.5787 31.0202Z" fill="#ECB85E"/>
<path d="M71.2483 27.6815H8.34487C8.3438 27.7149 8.33984 27.7476 8.33984 27.7812C8.33984 29.57 9.78992 31.0201 11.5787 31.0201H74.587C74.587 29.1762 73.0922 27.6815 71.2483 27.6815Z" fill="#EAA949"/>
<path d="M77.1817 34.1593H11.5787C10.4016 34.1593 9.37412 33.5292 8.80703 32.5898C8.51252 33.0776 8.33984 33.6476 8.33984 34.2591C8.33984 36.0478 9.78992 37.4979 11.5787 37.4979L44.6058 39.1151L77.1817 37.4979C80.7593 37.4979 83.6594 34.5978 83.6594 31.0202C83.6594 30.4429 83.5829 29.8835 83.4411 29.3509C82.7048 32.1192 80.182 34.1593 77.1817 34.1593Z" fill="#EAA949"/>
<path d="M4.99023 47.5566L8.87202 75.6112C9.25278 78.3635 11.6054 80.413 14.3839 80.413H77.6174C80.3959 80.413 82.7486 78.3635 83.1293 75.6112L87.0111 47.5566L46.0007 45.9394L4.99023 47.5566Z" fill="#9EC8FC"/>
<path d="M87.0102 47.5566L87.4722 44.2178L45.9998 42.6006L4.52734 44.2178L4.98932 47.5566H87.0102Z" fill="#80B6FC"/>
<path d="M3.35956 42.4962H88.6396C89.887 42.4962 91.5529 40.5684 91.5529 39.1884C90.9732 38.1791 89.887 37.4979 88.6396 37.4979H3.35956C2.11217 37.4979 1.02596 38.1792 0.446289 39.1884C0.446289 40.5685 2.11217 42.4962 3.35956 42.4962Z" fill="#E7ECF1"/>
<path d="M88.64 40.8791H3.35998C2.11259 40.8791 1.02638 40.1977 0.446703 39.1884C0.164055 39.6808 0 40.2496 0 40.8579C0 42.7135 1.50434 44.2179 3.35998 44.2179H88.64C90.4957 44.2179 92 42.7135 92 40.8579C92 40.2496 91.8359 39.6808 91.5533 39.1886C90.9736 40.1979 89.8874 40.8791 88.64 40.8791Z" fill="#C6D0DA"/>
<path d="M44.6064 54.2393V70.4559C44.6064 71.2259 45.2303 71.8497 46.0003 71.8497C46.7703 71.8497 47.3941 71.2257 47.3941 70.4559V54.2393C47.3941 53.4693 46.7701 52.8455 46.0003 52.8455C45.2305 52.8455 44.6064 53.4693 44.6064 54.2393Z" fill="#E7ECF1"/>
<path d="M53.4421 54.1898L52.8671 70.4064C52.8398 71.1757 53.4414 71.8215 54.2106 71.8488C54.2275 71.8493 54.2442 71.8497 54.2609 71.8497C55.0077 71.8497 55.6262 71.2576 55.653 70.5053L56.228 54.2886C56.2551 53.5192 55.6537 52.8736 54.8845 52.8463C54.1105 52.822 53.4694 53.4204 53.4421 54.1898Z" fill="#E7ECF1"/>
<path d="M61.8815 54.1744L61.1275 70.3911C61.0918 71.1599 61.6862 71.8126 62.455 71.8483C62.4771 71.8492 62.4991 71.8498 62.521 71.8498C63.2609 71.8498 63.8775 71.2676 63.9123 70.5206L64.6663 54.304C64.702 53.5349 64.1076 52.8825 63.3387 52.8467C62.5664 52.816 61.9174 53.4057 61.8815 54.1744Z" fill="#E7ECF1"/>
<path d="M70.7823 71.8499C71.4879 71.8499 72.0933 71.3161 72.1671 70.5989L73.8399 54.3823C73.9189 53.6167 73.3622 52.9319 72.5964 52.8528C71.8295 52.7723 71.1458 53.3306 71.0669 54.0963L69.3942 70.3129C69.3151 71.0785 69.8718 71.7633 70.6376 71.8424C70.6862 71.8472 70.7345 71.8499 70.7823 71.8499Z" fill="#E7ECF1"/>
<path d="M37.1159 52.8463C36.3465 52.8736 35.7451 53.5192 35.7724 54.2886L36.3474 70.5053C36.3742 71.2578 36.9925 71.8497 37.7394 71.8497C37.7561 71.8497 37.7728 71.8493 37.7897 71.8488C38.559 71.8216 39.1606 71.1758 39.1332 70.4064L38.5582 54.1898C38.5308 53.4206 37.8866 52.8161 37.1159 52.8463Z" fill="#E7ECF1"/>
<path d="M28.6611 52.8469C27.8922 52.8826 27.2978 53.5351 27.3336 54.3042L28.0875 70.5208C28.1224 71.2676 28.7387 71.8499 29.4789 71.8499C29.5006 71.8499 29.5225 71.8494 29.5448 71.8485C30.3137 71.8127 30.9081 71.1603 30.8723 70.3912L30.1184 54.1746C30.0826 53.4057 29.4359 52.8156 28.6611 52.8469Z" fill="#E7ECF1"/>
<path d="M19.4042 52.8529C18.6386 52.9318 18.0817 53.6166 18.1608 54.3824L19.8335 70.599C19.9074 71.3163 20.5127 71.85 21.2182 71.85C21.266 71.85 21.3141 71.8475 21.3628 71.8425C22.1285 71.7636 22.6853 71.0788 22.6063 70.313L20.9337 54.0963C20.8549 53.3305 20.1719 52.7726 19.4042 52.8529Z" fill="#E7ECF1"/>
</g>
<defs>
<clipPath id="clip0">
<rect width="92" height="92" fill="white"/>
</clipPath>
</defs>
</svg>
