<svg width="92" height="92" viewBox="0 0 92 92" fill="none" xmlns="http://www.w3.org/2000/svg">
<g clip-path="url(#clip0)">
<path d="M88.828 55.5172V90.4138C88.828 91.2898 88.1179 92 87.2418 92H4.75906C3.88302 92 3.17285 91.2898 3.17285 90.4138V55.5172H88.828Z" fill="#F29C1F"/>
<path d="M20.6204 88.8276C19.7443 88.8276 19.0342 88.1175 19.0342 87.2414V76.138C19.0342 75.2619 19.7443 74.5518 20.6204 74.5518C21.4964 74.5518 22.2066 75.2619 22.2066 76.138V87.2414C22.2066 88.1175 21.4964 88.8276 20.6204 88.8276Z" fill="#BDC3C7"/>
<path d="M46.0003 88.8276C45.1242 88.8276 44.4141 88.1175 44.4141 87.2414V76.138C44.4141 75.2619 45.1242 74.5518 46.0003 74.5518C46.8763 74.5518 47.5865 75.2619 47.5865 76.138V87.2414C47.5865 88.1175 46.8763 88.8276 46.0003 88.8276Z" fill="#BDC3C7"/>
<path d="M71.3792 88.8276C70.5031 88.8276 69.793 88.1175 69.793 87.2414V76.138C69.793 75.2619 70.5031 74.5518 71.3792 74.5518C72.2552 74.5518 72.9654 75.2619 72.9654 76.138V87.2414C72.9654 88.1175 72.2552 88.8276 71.3792 88.8276Z" fill="#BDC3C7"/>
<path d="M26.966 71.3793C26.966 74.8834 24.1253 77.7241 20.6212 77.7241C17.117 77.7241 14.2764 74.8834 14.2764 71.3793H26.966Z" fill="#F0C419"/>
<path d="M52.3449 71.3793C52.3449 74.8834 49.5042 77.7241 46.0001 77.7241C42.4959 77.7241 39.6553 74.8834 39.6553 71.3793H52.3449Z" fill="#F0C419"/>
<path d="M77.7238 71.3793C77.7238 74.8834 74.8832 77.7241 71.379 77.7241C67.8749 77.7241 65.0342 74.8834 65.0342 71.3793H77.7238Z" fill="#F0C419"/>
<path d="M14.2764 92C14.2764 88.4958 17.117 85.6552 20.6212 85.6552C24.1253 85.6552 26.966 88.4958 26.966 92H14.2764Z" fill="#7F8C8D"/>
<path d="M39.6553 92C39.6553 88.4958 42.4959 85.6552 46.0001 85.6552C49.5042 85.6552 52.3449 88.4958 52.3449 92H39.6553Z" fill="#7F8C8D"/>
<path d="M65.0342 92C65.0342 88.4958 67.8749 85.6552 71.379 85.6552C74.8832 85.6552 77.7238 88.4958 77.7238 92H65.0342Z" fill="#7F8C8D"/>
<path d="M69.7935 42.8276C71.5456 42.8276 72.9659 44.2479 72.9659 46V53.931H66.6211V46C66.6211 44.2479 68.0414 42.8276 69.7935 42.8276Z" fill="#F29C1F"/>
<path d="M53.9302 42.8276C55.6823 42.8276 57.1026 44.2479 57.1026 46V53.931H50.7578V46C50.7578 44.2479 52.1782 42.8276 53.9302 42.8276Z" fill="#F29C1F"/>
<path d="M38.0689 42.8276C39.821 42.8276 41.2413 44.2479 41.2413 46V53.931H34.8965V46C34.8965 44.2479 36.3168 42.8276 38.0689 42.8276Z" fill="#F29C1F"/>
<path d="M22.2066 42.8276C23.9587 42.8276 25.379 44.2479 25.379 46V53.931H19.0342V46C19.0342 44.2479 20.4545 42.8276 22.2066 42.8276Z" fill="#F29C1F"/>
<path d="M11.1036 27.0226V54.6226H4.75879V26.9655C5.50851 27.52 6.38768 27.8733 7.31258 27.9918C8.65217 28.1419 10.0004 27.7972 11.1036 27.0226Z" fill="#805333"/>
<path d="M87.2413 26.9655V54.629H80.8965V27.029C81.9997 27.8036 83.3479 28.1482 84.6875 27.9981C85.613 27.8777 86.4922 27.5222 87.2413 26.9655Z" fill="#805333"/>
<path d="M92 55.5173C91.9871 57.264 90.5743 58.6768 88.8276 58.6897H3.17246C1.42255 58.6845 0.00527019 57.2672 4.39596e-05 55.5173C-0.00443401 54.6757 0.333371 53.8684 0.935906 53.2808C1.52353 52.6782 2.33083 52.3404 3.17246 52.3449H88.8276C90.5775 52.3501 91.9948 53.7674 92 55.5173Z" fill="#A56A43"/>
<path d="M80.2469 1.47517C79.6652 0.556548 78.6536 -0.000160822 77.5663 3.48495e-08H14.4352C13.3479 -0.000160822 12.3363 0.556548 11.7545 1.47517L1.58695 17.4483V23.5234C1.57931 25.8533 2.78003 28.0206 4.75936 29.2497C5.53615 29.7219 6.40869 30.0146 7.31316 30.1062C9.09621 30.2874 10.8724 29.7035 12.2002 28.4997C13.528 27.2959 14.2826 25.5853 14.2766 23.7931C14.2766 27.2973 17.1173 30.1379 20.6214 30.1379C24.1256 30.1379 26.9663 27.2973 26.9663 23.7931C26.9663 27.2973 29.8069 30.1379 33.3111 30.1379C36.8152 30.1379 39.6559 27.2973 39.6559 23.7931C39.6559 27.2973 42.4966 30.1379 46.0007 30.1379C49.5049 30.1379 52.3456 27.2973 52.3456 23.7931C52.3456 27.2973 55.1862 30.1379 58.6904 30.1379C62.1945 30.1379 65.0352 27.2973 65.0352 23.7931C65.0352 27.2973 67.8759 30.1379 71.3801 30.1379C74.8842 30.1379 77.7249 27.2973 77.7249 23.7931C77.7188 25.5853 78.4735 27.2959 79.8013 28.4997C81.1291 29.7035 82.9053 30.2874 84.6883 30.1062C85.5928 30.0146 86.4653 29.7219 87.2421 29.2497C89.2215 28.0206 90.4222 25.8533 90.4145 23.5234V17.4483L80.2469 1.47517Z" fill="#F3D55B"/>
<path d="M22.2066 3.12535e-09L14.2756 17.4483H1.58594L11.7535 1.47517C12.3352 0.556548 13.3469 -0.000160822 14.4342 3.48495e-08L22.2066 3.12535e-09Z" fill="#F0C419"/>
<path d="M31.7246 0L26.966 17.4483H14.2764L22.2074 0H31.7246Z" fill="#DF4D60"/>
<path d="M42.8279 0L39.6555 17.4483H26.9658L31.7244 0H42.8279Z" fill="#F0C419"/>
<path d="M52.3449 17.4483H39.6553L42.8277 0H49.1725L52.3449 17.4483Z" fill="#DF4D60"/>
<path d="M65.0349 17.4483H52.3453L49.1729 0H60.2763L65.0349 17.4483Z" fill="#F0C419"/>
<path d="M77.7246 17.4483H65.035L60.2764 0H69.7936L77.7246 17.4483Z" fill="#DF4D60"/>
<path d="M90.4137 17.4483H77.724L69.793 3.12535e-09L77.5654 3.48495e-08C78.6527 -0.000160822 79.6644 0.556548 80.2461 1.47517L90.4137 17.4483Z" fill="#F0C419"/>
<path d="M77.7238 17.4482V23.7931C77.7238 27.2972 74.8832 30.1379 71.379 30.1379C67.8749 30.1379 65.0342 27.2972 65.0342 23.7931V17.4482H77.7238Z" fill="#FF5364"/>
<path d="M52.3449 17.4482V23.7931C52.3449 27.2972 49.5042 30.1379 46.0001 30.1379C42.4959 30.1379 39.6553 27.2972 39.6553 23.7931V17.4482H52.3449Z" fill="#FF5364"/>
<path d="M26.966 17.4482V23.7931C26.966 27.2972 24.1253 30.1379 20.6212 30.1379C17.117 30.1379 14.2764 27.2972 14.2764 23.7931V17.4482H26.966Z" fill="#FF5364"/>
<path d="M30.138 68.2069V69.7931C30.138 70.6692 29.4278 71.3793 28.5518 71.3793H12.6897C11.8137 71.3793 11.1035 70.6692 11.1035 69.7931V68.2069C11.1087 66.457 12.526 65.0397 14.2759 65.0345H26.9656C28.7155 65.0397 30.1328 66.457 30.138 68.2069Z" fill="#464F5D"/>
<path d="M55.5169 68.2069V69.7931C55.5169 70.6692 54.8067 71.3793 53.9307 71.3793H38.0686C37.1926 71.3793 36.4824 70.6692 36.4824 69.7931V68.2069C36.4876 66.457 37.9049 65.0397 39.6548 65.0345H52.3445C54.0944 65.0397 55.5117 66.457 55.5169 68.2069Z" fill="#464F5D"/>
<path d="M80.8968 68.2069V69.7931C80.8968 70.6692 80.1866 71.3793 79.3106 71.3793H63.4485C62.5725 71.3793 61.8623 70.6692 61.8623 69.7931V68.2069C61.8675 66.457 63.2848 65.0397 65.0347 65.0345H77.7244C79.4743 65.0397 80.8916 66.457 80.8968 68.2069Z" fill="#464F5D"/>
</g>
<defs>
<clipPath id="clip0">
<rect width="92" height="92" fill="white"/>
</clipPath>
</defs>
</svg>
