<svg width="92" height="92" viewBox="0 0 92 92" fill="none" xmlns="http://www.w3.org/2000/svg">
<g clip-path="url(#clip0)">
<path d="M79.7344 74.2783C75.1349 74.3576 71.3698 70.5133 71.3698 65.9123V61.8644C71.3698 60.394 70.178 59.2014 68.7075 59.2014H63.7549V53.6423H68.7075C73.2481 53.6423 76.9289 57.3238 76.9289 61.8637V65.9811C76.9289 67.413 78.0267 68.6469 79.4572 68.7178C80.9859 68.7929 82.2536 67.5709 82.2536 66.0583V19.7832C82.2536 18.9163 81.9096 18.0853 81.2962 17.4725L73.0734 9.24899C72.582 8.75766 72.582 7.9617 73.0734 7.47107L75.2254 5.31833C75.7167 4.827 76.5127 4.827 77.004 5.31833L86.8553 15.1703C87.468 15.783 87.8127 16.6141 87.8127 17.4809V66.0583C87.8127 70.5442 84.2021 74.2018 79.7344 74.2783Z" fill="#B9ACAC"/>
<path d="M86.8548 15.1703L77.0036 5.31833C76.5123 4.827 75.7163 4.827 75.225 5.31833L74.627 5.91635L83.8809 15.1703C84.4936 15.783 84.8383 16.6141 84.8383 17.4809V66.0583C84.8383 70.0795 81.9352 73.4339 78.1154 74.1407C78.639 74.239 79.1802 74.2881 79.734 74.2783C84.2016 74.2018 87.8122 70.5442 87.8122 66.0583V17.4809C87.8122 16.6141 87.4676 15.783 86.8548 15.1703Z" fill="#9E9797"/>
<path d="M82.2536 38.7578V66.0583C82.2536 67.5709 80.9859 68.7929 79.4572 68.7171C78.0267 68.6469 76.9289 67.413 76.9289 65.9811V61.8637C76.9289 57.3238 73.2481 53.6423 68.7075 53.6423H63.7549V59.2014H68.7075C70.178 59.2014 71.3698 60.3939 71.3698 61.8644V65.9123C71.3698 70.5133 75.1349 74.3569 79.7344 74.2783C84.2021 74.2018 87.8127 70.5442 87.8127 66.0583V38.7578H82.2536Z" fill="#766E6E"/>
<path d="M84.8383 36.998H81.46C78.7963 36.998 76.5804 34.9155 76.4147 32.2567L75.7114 20.9546L78.4011 20.7869L79.1044 32.0889C79.1816 33.3299 80.2169 34.3027 81.46 34.3027H84.8383V36.998Z" fill="#B9ACAC"/>
<path d="M77.6147 18.8904C76.4678 18.8904 75.5623 19.8646 75.6465 21.0087L75.9385 24.9738H80.2875C81.3734 24.9738 82.2536 25.854 82.2536 26.9398V39.1902H87.8127V18.8904H77.6147Z" fill="#FF6930"/>
<path d="M84.8376 38.7578V66.0583C84.8376 70.0795 81.9345 73.4339 78.1147 74.1408C78.6391 74.239 79.1802 74.2882 79.7333 74.2783C84.201 74.2018 87.8116 70.5442 87.8116 66.0583V38.7578H84.8376Z" fill="#5B5555"/>
<path d="M64.2811 86.2556H13.2744C12.0089 86.2556 10.9834 85.2301 10.9834 83.9646V2.29102C10.9834 1.02548 12.0089 0 13.2744 0H64.2811C65.5466 0 66.5721 1.02548 66.5721 2.29102V83.9646C66.5721 85.2301 65.5466 86.2556 64.2811 86.2556Z" fill="#766E6E"/>
<path d="M64.2094 0H50.4458C51.7506 0 52.8084 1.05777 52.8084 2.36261V83.893C52.8084 85.1978 51.7506 86.2556 50.4458 86.2556H64.2094C65.5143 86.2556 66.5721 85.1978 66.5721 83.893V2.36261C66.5721 1.05777 65.5143 0 64.2094 0V0Z" fill="#5B5555"/>
<path d="M57.6825 40.7343H19.873C18.6082 40.7343 17.582 39.7088 17.582 38.4433V11.6179C17.582 10.3524 18.6082 9.3269 19.873 9.3269H57.6825C58.9474 9.3269 59.9735 10.3524 59.9735 11.6179V38.4433C59.9735 39.7088 58.9474 40.7343 57.6825 40.7343Z" fill="#E1D3CE"/>
<path d="M57.6109 9.3269H56.2233V34.076C56.2233 35.3809 55.1655 36.4387 53.8607 36.4387H17.582V38.3717C17.582 39.6765 18.6398 40.7343 19.9446 40.7343H57.6109C58.9158 40.7343 59.9735 39.6765 59.9735 38.3717V11.6895C59.9735 10.384 58.9158 9.3269 57.6109 9.3269Z" fill="#CDBFBA"/>
<path d="M10.9834 46.6022V83.893C10.9834 85.1978 12.0412 86.2556 13.346 86.2556H64.2095C65.5143 86.2556 66.5721 85.1978 66.5721 83.893V46.6022H10.9834Z" fill="#FF6930"/>
<path d="M66.5721 83.893V46.6022H52.8084V83.893C52.8084 85.1978 51.7506 86.2556 50.4458 86.2556H64.2094C65.5143 86.2556 66.5721 85.1978 66.5721 83.893Z" fill="#FF5426"/>
<path d="M64.8875 77.1765H12.668C8.05365 77.1765 4.3125 80.917 4.3125 85.532V90.4727C4.3125 91.3164 4.99615 92 5.83984 92H71.7157C72.5594 92 73.243 91.3164 73.243 90.4727V85.532C73.243 80.917 69.5019 77.1765 64.8875 77.1765Z" fill="#FF6930"/>
<path d="M64.6264 77.1765H57.3287C58.9579 78.7439 59.9728 80.9443 59.9728 83.3842V88.016C59.9728 88.8864 59.2681 89.5911 58.3977 89.5911H4.3125V90.425C4.3125 91.2946 5.01791 92 5.88757 92H71.6679C72.5376 92 73.243 91.2946 73.243 90.425V85.7924C73.243 81.0342 69.3853 77.1765 64.6264 77.1765Z" fill="#FF5426"/>
<path d="M84.8379 18.8904V39.1902H87.8126V18.8904H84.8379Z" fill="#FF5426"/>
<path d="M51.745 33.8781C52.4216 33.8781 52.9424 33.2632 52.8105 32.5999C51.5407 26.1929 45.8897 21.3624 39.11 21.3624C32.3303 21.3624 26.6793 26.1929 25.4095 32.5999C25.2783 33.2632 25.7984 33.8781 26.475 33.8781H51.745Z" fill="#B9ACAC"/>
<path d="M52.8107 32.5999C51.5409 26.1929 45.8899 21.3624 39.1102 21.3624C38.682 21.3624 38.2581 21.3821 37.8391 21.42C42.4288 23.0435 45.9173 26.9959 46.8817 31.8587C47.0129 32.522 46.4921 33.1369 45.8155 33.1369H25.4448C25.5866 33.5615 25.9902 33.8781 26.4752 33.8781H51.7452C52.4218 33.8781 52.9426 33.2632 52.8107 32.5999Z" fill="#9E9797"/>
<path d="M38.7792 30.4395C38.3342 30.4395 37.8983 30.2191 37.6414 29.8155L30.6238 18.79C30.2237 18.1625 30.409 17.3293 31.0365 16.9299C31.6647 16.5298 32.4979 16.7152 32.8972 17.3427L39.9149 28.3682C40.3143 28.9957 40.1297 29.8288 39.5015 30.2282C39.2776 30.3714 39.027 30.4395 38.7792 30.4395Z" fill="#F04424"/>
</g>
<defs>
<clipPath id="clip0">
<rect width="92" height="92" fill="white"/>
</clipPath>
</defs>
</svg>
